<?xml version="1.0" encoding="utf-8"?>
<!-- Generator: Adobe Illustrator 24.0.3, SVG Export Plug-In . SVG Version: 6.00 Build 0)  -->
<svg version="1.1" id="レイヤー_1" xmlns="http://www.w3.org/2000/svg" xmlns:xlink="http://www.w3.org/1999/xlink" x="0px"
	 y="0px" viewBox="0 0 129 849" style="enable-background:new 0 0 129 849;" xml:space="preserve">
<style type="text/css">
	.st0{fill:#DB95AC;}
</style>
<g>
	<path class="st0" d="M64.5,848.5c-35.3,0-64-28.7-64-64v-720c0-35.3,28.7-64,64-64s64,28.7,64,64v720
		C128.5,819.8,99.8,848.5,64.5,848.5z"/>
	<path class="st0" d="M64.5,1c35,0,63.5,28.5,63.5,63.5v720c0,35-28.5,63.5-63.5,63.5C29.5,848,1,819.5,1,784.5v-720
		C1,29.5,29.5,1,64.5,1 M64.5,0L64.5,0C28.9,0,0,28.9,0,64.5v720C0,820.1,28.9,849,64.5,849h0c35.6,0,64.5-28.9,64.5-64.5v-720
		C129,28.9,100.1,0,64.5,0L64.5,0z"/>
</g>
</svg>
